<svg t="1751170355309" class="icon" viewBox="0 0 1024 1024" version="1.1" xmlns="http://www.w3.org/2000/svg" p-id="2064" width="200" height="200"><path d="M660.164923 35.446154a122.092308 122.092308 0 0 1 122.092308 122.092308v29.774769a43.323077 43.323077 0 0 1-86.646154 0V157.538462a35.446154 35.446154 0 0 0-35.446154-35.446154H157.538462a35.446154 35.446154 0 0 0-35.446154 35.446154v708.923076a35.446154 35.446154 0 0 0 35.446154 35.446154h502.626461a35.446154 35.446154 0 0 0 35.446154-35.446154v-29.223384a43.323077 43.323077 0 1 1 86.646154 0V866.461538a122.092308 122.092308 0 0 1-122.092308 122.092308H157.538462A122.092308 122.092308 0 0 1 35.446154 866.461538V157.538462A122.092308 122.092308 0 0 1 157.538462 35.446154h502.626461z m171.323077 301.528615l144.384 144.384a43.323077 43.323077 0 0 1 0 61.282462l-144.423385 144.384a43.323077 43.323077 0 1 1-61.243077-61.243077l70.419693-70.498462-400.817231 0.039385a43.323077 43.323077 0 1 1 0-86.646154l400.817231-0.039385-70.419693-70.419692a43.323077 43.323077 0 0 1-3.387076-57.501538l3.387076-3.741539a43.323077 43.323077 0 0 1 61.243077 0z" fill="#000000" p-id="2065"></path></svg>