<svg t="1751170328466" class="icon" viewBox="0 0 1024 1024" version="1.1" xmlns="http://www.w3.org/2000/svg" p-id="1911" width="200" height="200"><path d="M660.164923 35.446154a122.092308 122.092308 0 0 1 122.092308 122.092308v29.774769a43.323077 43.323077 0 0 1-86.646154 0V157.538462a35.446154 35.446154 0 0 0-35.446154-35.446154H157.538462a35.446154 35.446154 0 0 0-35.446154 35.446154v708.923076a35.446154 35.446154 0 0 0 35.446154 35.446154h502.626461a35.446154 35.446154 0 0 0 35.446154-35.446154v-29.223384a43.323077 43.323077 0 1 1 86.646154 0V866.461538a122.092308 122.092308 0 0 1-122.092308 122.092308H157.538462A122.092308 122.092308 0 0 1 35.446154 866.461538V157.538462A122.092308 122.092308 0 0 1 157.538462 35.446154h502.626461z m-106.574769 301.528615a43.323077 43.323077 0 0 1 61.243077 0l3.387077 3.741539a43.323077 43.323077 0 0 1-3.387077 57.501538L544.374154 468.676923 945.230769 468.676923a43.323077 43.323077 0 0 1 43.086769 38.596923l0.236308 4.726154a43.323077 43.323077 0 0 1-43.323077 43.323077l-400.896-0.039385 70.498462 70.498462a43.323077 43.323077 0 0 1 3.387077 57.501538l-3.387077 3.741539a43.323077 43.323077 0 0 1-61.243077 0l-144.423385-144.384a43.323077 43.323077 0 0 1 0-61.282462z" fill="#000000" p-id="1912"></path></svg>