<svg t="1751170380865" class="icon" viewBox="0 0 1024 1024" version="1.1" xmlns="http://www.w3.org/2000/svg" p-id="2217" width="200" height="200"><path d="M512 35.446154C775.207385 35.446154 988.553846 248.792615 988.553846 512S775.207385 988.553846 512 988.553846 35.446154 775.207385 35.446154 512 248.792615 35.446154 512 35.446154z m124.534154 678.203077l-7.758769 0.866461c-37.336615 4.096-76.484923 6.222769-116.775385 6.22277a1072.049231 1072.049231 0 0 1-124.573538-7.089231c20.48 91.175385 53.563077 159.271385 89.718153 186.761846a408.694154 408.694154 0 0 0 69.71077-0.039385c36.115692-27.451077 69.238154-95.547077 89.678769-186.722461z m-491.913846-70.774154l1.45723 4.096a391.049846 391.049846 0 0 0 235.126154 232.448c-26.505846-46.316308-47.143385-106.732308-60.534154-176.049231-69.395692-13.390769-129.772308-34.067692-176.04923-60.494769z m734.798769-0.078769l-1.929846 1.142154c-46.001231 25.915077-105.708308 46.198154-174.08 59.392-13.469538 69.395692-34.107077 129.772308-60.534154 176.04923a390.892308 390.892308 0 0 0 236.544-236.583384zM512 366.276923c-47.970462 0-93.853538 3.347692-136.349538 9.373539A975.438769 975.438769 0 0 0 366.276923 512c0 47.970462 3.347692 93.853538 9.373539 136.349538 42.535385 6.025846 88.379077 9.373538 136.349538 9.373539s93.853538-3.347692 136.349538-9.373539c6.025846-42.535385 9.373538-88.379077 9.373539-136.349538s-3.347692-93.853538-9.373539-136.349538A975.438769 975.438769 0 0 0 512 366.276923z m-201.649231 21.149539l-8.625231 2.048c-86.843077 20.558769-151.512615 52.696615-178.136615 87.670153a408.694154 408.694154 0 0 0 0.039385 69.71077c27.451077 36.115692 95.547077 69.238154 186.722461 89.678769A1071.104 1071.104 0 0 1 303.261538 512c0-43.086769 2.441846-84.873846 7.089231-124.573538z m403.298462 0.039384l0.866461 7.758769c4.096 37.336615 6.222769 76.484923 6.22277 116.775385a1072.049231 1072.049231 0 0 1-7.089231 124.573538c91.175385-20.48 159.271385-53.563077 186.761846-89.718153a408.694154 408.694154 0 0 0-0.039385-69.71077c-27.451077-36.115692-95.547077-69.238154-186.722461-89.678769zM381.124923 144.620308l-4.096 1.45723A391.049846 391.049846 0 0 0 144.541538 381.243077c46.316308-26.505846 106.732308-47.143385 176.049231-60.534154 13.390769-69.395692 34.067692-129.772308 60.494769-176.049231z m261.671385-0.039385l1.142154 1.929846c25.915077 46.001231 46.198154 105.708308 59.392 174.08 69.395692 13.469538 129.772308 34.107077 176.04923 60.534154a390.892308 390.892308 0 0 0-236.583384-236.544zM512 122.092308c-11.776 0-23.394462 0.512-34.894769 1.575384-36.076308 27.411692-69.198769 95.507692-89.639385 186.683077A1071.104 1071.104 0 0 1 512 303.261538c43.086769 0 84.873846 2.441846 124.573538 7.089231-20.48-91.175385-53.563077-159.271385-89.718153-186.761846A408.694154 408.694154 0 0 0 512 122.092308z" fill="#000000" p-id="2218"></path></svg>