<svg t="1751170403711" class="icon" viewBox="0 0 1024 1024" version="1.1" xmlns="http://www.w3.org/2000/svg" p-id="2370" width="200" height="200"><path d="M965.986462 112.64a122.092308 122.092308 0 0 1 2.756923 77.193846l-215.867077 733.538462a122.092308 122.092308 0 0 1-226.264616 20.243692l-137.216-273.526154a35.446154 35.446154 0 0 0-18.038154-16.817231l-282.781538-117.917538a122.092308 122.092308 0 0 1 4.332308-227.091692l716.012307-267.264a122.092308 122.092308 0 0 1 157.065847 71.68z m-126.779077 9.531077L123.195077 389.435077a35.446154 35.446154 0 0 0-1.260308 65.929846l281.954462 117.563077 206.139077-221.026462a43.323077 43.323077 0 1 1 63.369846 59.076924l-206.178462 221.10523 136.861539 272.699077a35.446154 35.446154 0 0 0 65.654154-5.907692L885.641846 165.415385a35.446154 35.446154 0 0 0-46.434461-43.204923z" fill="#000000" p-id="2371"></path></svg>