<svg t="1751170423720" class="icon" viewBox="0 0 1024 1024" version="1.1" xmlns="http://www.w3.org/2000/svg" p-id="2523" width="200" height="200"><path d="M402.510769 104.251077a122.092308 122.092308 0 0 1 218.978462 0l78.887384 159.822769a35.446154 35.446154 0 0 0 26.663385 19.377231l176.364308 25.639385a122.092308 122.092308 0 0 1 67.662769 208.265846l-127.606154 124.376615a35.446154 35.446154 0 0 0-10.200615 31.389539l30.12923 175.655384a122.092308 122.092308 0 0 1-177.152 128.708923l-157.735384-82.944a35.446154 35.446154 0 0 0-33.004308 0l-157.735384 82.944a122.092308 122.092308 0 0 1-177.152-128.708923l30.12923-175.655384a35.446154 35.446154 0 0 0-10.200615-31.389539l-127.606154-124.376615a122.092308 122.092308 0 0 1 67.662769-208.265846l176.364308-25.6a35.446154 35.446154 0 0 0 26.663385-19.416616l78.887384-159.822769z m125.164308 22.252308a35.446154 35.446154 0 0 0-47.458462 16.108307L401.329231 302.434462a122.092308 122.092308 0 0 1-91.923693 66.756923l-176.364307 25.639384a35.446154 35.446154 0 0 0-19.652923 60.455385l127.606154 124.416a122.092308 122.092308 0 0 1 35.131076 108.071384l-30.12923 175.655385a35.446154 35.446154 0 0 0 51.436307 37.336615l157.735385-82.904615a122.092308 122.092308 0 0 1 113.664 0l157.735385 82.904615a35.446154 35.446154 0 0 0 51.436307-37.336615l-30.12923-175.655385a122.092308 122.092308 0 0 1 35.091692-108.071384l127.606154-124.416a35.446154 35.446154 0 0 0-19.613539-60.455385l-176.364307-25.6a122.092308 122.092308 0 0 1-91.923693-66.796307L543.783385 142.572308a35.446154 35.446154 0 0 0-16.108308-16.108308z" fill="#000000" p-id="2524"></path></svg>