<svg t="1751170304764" class="icon" viewBox="0 0 1024 1024" version="1.1" xmlns="http://www.w3.org/2000/svg" p-id="1758" width="200" height="200"><path d="M512 35.446154C775.207385 35.446154 988.553846 248.792615 988.553846 512S775.207385 988.553846 512 988.553846 35.446154 775.207385 35.446154 512 248.792615 35.446154 512 35.446154z m0 86.646154c-215.355077 0-389.907692 174.552615-389.907692 389.907692s174.552615 389.907692 389.907692 389.907692 389.907692-174.552615 389.907692-389.907692-174.552615-389.907692-389.907692-389.907692z m0 529.723077a59.076923 59.076923 0 1 1 0 118.153846 59.076923 59.076923 0 0 1 0-118.153846z m0-441.107693a181.169231 181.169231 0 0 1 181.169231 181.169231l-0.196923 8.270769a181.287385 181.287385 0 0 1-132.804923 166.439385l-4.844308 1.181538v11.224616a43.323077 43.323077 0 0 1-86.646154 0V529.723077a43.323077 43.323077 0 0 1 43.323077-43.323077 94.523077 94.523077 0 1 0-91.963077-72.467692 43.323077 43.323077 0 1 1-84.283077 20.086154A181.169231 181.169231 0 0 1 512 210.707692z" fill="#000000" p-id="1759"></path></svg>